<mxfile host="Electron" modified="2024-02-28T05:45:05.820Z" agent="Mozilla/5.0 (X11; Linux x86_64) AppleWebKit/537.36 (KHTML, like Gecko) draw.io/23.1.5 Chrome/120.0.6099.109 Electron/28.1.0 Safari/537.36" etag="n4KrLFruiZ-XL8JvM4WP" version="23.1.5" type="device">
  <diagram name="Page-1" id="okQUsLcCIn6qNMJXYvbM">
    <mxGraphModel dx="4580" dy="1203" grid="1" gridSize="10" guides="1" tooltips="1" connect="1" arrows="1" fold="1" page="1" pageScale="1" pageWidth="850" pageHeight="1100" math="0" shadow="0">
      <root>
        <mxCell id="0" />
        <mxCell id="1" parent="0" />
        <mxCell id="vkioKFIhYw0de9d4MXof-1" value="&lt;font style=&quot;font-size: 48px;&quot;&gt;Host&lt;/font&gt;" style="rounded=1;whiteSpace=wrap;html=1;verticalAlign=top;" parent="1" vertex="1">
          <mxGeometry x="-1470" y="460" width="540" height="240" as="geometry" />
        </mxCell>
        <mxCell id="vkioKFIhYw0de9d4MXof-2" value="&lt;font style=&quot;font-size: 24px;&quot;&gt;Physical&lt;br&gt;Disk&lt;/font&gt;" style="shape=cylinder3;whiteSpace=wrap;html=1;boundedLbl=1;backgroundOutline=1;size=15;" parent="1" vertex="1">
          <mxGeometry x="-1380" y="760" width="120" height="80" as="geometry" />
        </mxCell>
        <mxCell id="vkioKFIhYw0de9d4MXof-3" value="&lt;font style=&quot;font-size: 24px;&quot;&gt;Physical&lt;br&gt;Disk&lt;/font&gt;" style="shape=cylinder3;whiteSpace=wrap;html=1;boundedLbl=1;backgroundOutline=1;size=15;" parent="1" vertex="1">
          <mxGeometry x="-1140" y="760" width="120" height="80" as="geometry" />
        </mxCell>
        <mxCell id="vkioKFIhYw0de9d4MXof-5" value="&lt;font style=&quot;font-size: 24px;&quot;&gt;/dev/nvme0n1&lt;br&gt;&lt;/font&gt;" style="rounded=0;whiteSpace=wrap;html=1;" parent="1" vertex="1">
          <mxGeometry x="-1410" y="640" width="180" height="60" as="geometry" />
        </mxCell>
        <mxCell id="vkioKFIhYw0de9d4MXof-8" value="" style="endArrow=classic;html=1;rounded=0;strokeWidth=5;strokeColor=#000000;exitX=0.5;exitY=0;exitDx=0;exitDy=0;exitPerimeter=0;entryX=0.5;entryY=1;entryDx=0;entryDy=0;" parent="1" source="vkioKFIhYw0de9d4MXof-3" target="ueIjF3PpHAWbO-Qc0I8r-2" edge="1">
          <mxGeometry width="50" height="50" relative="1" as="geometry">
            <mxPoint x="-1040" y="690" as="sourcePoint" />
            <mxPoint x="-990" y="640" as="targetPoint" />
          </mxGeometry>
        </mxCell>
        <mxCell id="vkioKFIhYw0de9d4MXof-9" value="" style="endArrow=classic;html=1;rounded=0;strokeWidth=5;strokeColor=#000000;exitX=0.5;exitY=0;exitDx=0;exitDy=0;exitPerimeter=0;entryX=0.5;entryY=1;entryDx=0;entryDy=0;" parent="1" source="vkioKFIhYw0de9d4MXof-2" target="vkioKFIhYw0de9d4MXof-5" edge="1">
          <mxGeometry width="50" height="50" relative="1" as="geometry">
            <mxPoint x="-1450" y="720" as="sourcePoint" />
            <mxPoint x="-1400" y="670" as="targetPoint" />
          </mxGeometry>
        </mxCell>
        <mxCell id="ueIjF3PpHAWbO-Qc0I8r-2" value="&lt;font style=&quot;font-size: 24px;&quot;&gt;/dev/nvme1n1&lt;br&gt;&lt;/font&gt;" style="rounded=0;whiteSpace=wrap;html=1;" vertex="1" parent="1">
          <mxGeometry x="-1170" y="640" width="180" height="60" as="geometry" />
        </mxCell>
        <mxCell id="ueIjF3PpHAWbO-Qc0I8r-4" value="&lt;font style=&quot;font-size: 24px;&quot;&gt;device mapper&lt;/font&gt;" style="rounded=1;whiteSpace=wrap;html=1;" vertex="1" parent="1">
          <mxGeometry x="-1260" y="520" width="120" height="60" as="geometry" />
        </mxCell>
        <mxCell id="ueIjF3PpHAWbO-Qc0I8r-5" value="" style="endArrow=classic;html=1;rounded=0;strokeWidth=5;strokeColor=#808080;exitX=0.5;exitY=0;exitDx=0;exitDy=0;entryX=0.5;entryY=1;entryDx=0;entryDy=0;" edge="1" parent="1" source="vkioKFIhYw0de9d4MXof-5" target="ueIjF3PpHAWbO-Qc0I8r-4">
          <mxGeometry width="50" height="50" relative="1" as="geometry">
            <mxPoint x="-1540" y="770" as="sourcePoint" />
            <mxPoint x="-1540" y="710" as="targetPoint" />
          </mxGeometry>
        </mxCell>
        <mxCell id="ueIjF3PpHAWbO-Qc0I8r-6" value="" style="endArrow=classic;html=1;rounded=0;strokeWidth=5;strokeColor=#808080;exitX=0.5;exitY=0;exitDx=0;exitDy=0;entryX=0.5;entryY=1;entryDx=0;entryDy=0;" edge="1" parent="1" source="ueIjF3PpHAWbO-Qc0I8r-2" target="ueIjF3PpHAWbO-Qc0I8r-4">
          <mxGeometry width="50" height="50" relative="1" as="geometry">
            <mxPoint x="-1200.5" y="810" as="sourcePoint" />
            <mxPoint x="-1200.5" y="750" as="targetPoint" />
          </mxGeometry>
        </mxCell>
      </root>
    </mxGraphModel>
  </diagram>
</mxfile>
